HIERARCHY
ROOT Hips
{
	OFFSET 0.000000 0.000000 0.000000
	CHANNELS 6 Xposition Yposition Zposition Zrotation Yrotation Xrotation 
	JOINT LHipJoint
	{
		OFFSET 0.000000 0.000000 0.000000
		CHANNELS 3 Zrotation Yrotation Xrotation
		JOINT LeftUpLeg
		{
			OFFSET 1.363060 -1.794630 0.839290
			CHANNELS 3 Zrotation Yrotation Xrotation
			JOINT LeftLeg
			{
				OFFSET 2.448110 -6.726130 0.000000
				CHANNELS 3 Zrotation Yrotation Xrotation
				JOINT LeftFoot
				{
					OFFSET 2.562200 -7.039590 0.000000
					CHANNELS 3 Zrotation Yrotation Xrotation
					JOINT LeftToeBase
					{
						OFFSET 0.157640 -0.433110 2.322550
						CHANNELS 3 Zrotation Yrotation Xrotation
						End Site
						{
							OFFSET 0.000000 0.000000 0.000000
						}
					}
				}
			}
		}
	}
	JOINT RHipJoint
	{
		OFFSET 0.000000 0.000000 0.000000
		CHANNELS 3 Zrotation Yrotation Xrotation
		JOINT RightUpLeg
		{
			OFFSET -1.305520 -1.794630 0.839290
			CHANNELS 3 Zrotation Yrotation Xrotation
			JOINT RightLeg
			{
				OFFSET -2.542530 -6.985550 0.000000
				CHANNELS 3 Zrotation Yrotation Xrotation
				JOINT RightFoot
				{
					OFFSET -2.568260 -7.056230 0.000000
					CHANNELS 3 Zrotation Yrotation Xrotation
					JOINT RightToeBase
					{
						OFFSET -0.164730 -0.452590 2.363150
						CHANNELS 3 Zrotation Yrotation Xrotation
						End Site
						{
							OFFSET 0.000000 0.000000 0.000000
						}
					}
				}
			}
		}
	}
	JOINT LowerBack
	{
		OFFSET 0.000000 0.000000 0.000000
		CHANNELS 3 Zrotation Yrotation Xrotation
		JOINT Spine
		{
			OFFSET 0.028270 2.035590 -0.193380
			CHANNELS 3 Zrotation Yrotation Xrotation
			JOINT Spine1
			{
				OFFSET 0.056720 2.048850 -0.042750
				CHANNELS 3 Zrotation Yrotation Xrotation
				JOINT Neck
				{
					OFFSET 0.000000 0.000000 0.000000
					CHANNELS 3 Zrotation Yrotation Xrotation
					JOINT Neck1
					{
						OFFSET -0.054170 1.746240 0.172020
						CHANNELS 3 Zrotation Yrotation Xrotation
						JOINT Head
						{
							OFFSET 0.104070 1.761360 -0.123970
							CHANNELS 3 Zrotation Yrotation Xrotation
							End Site
							{
								OFFSET 0.000000 0.000000 0.000000
							}
						}
					}
				}
				JOINT LeftShoulder
				{
					OFFSET 0.000000 0.000000 0.000000
					CHANNELS 3 Zrotation Yrotation Xrotation
					JOINT LeftArm
					{
						OFFSET 3.362410 1.200890 -0.311210
						CHANNELS 3 Zrotation Yrotation Xrotation
						JOINT LeftForeArm
						{
							OFFSET 4.983000 -0.000000 -0.000000
							CHANNELS 3 Zrotation Yrotation Xrotation
							JOINT LeftHand
							{
								OFFSET 3.483560 -0.000000 -0.000000
								CHANNELS 3 Zrotation Yrotation Xrotation
								JOINT LeftFingerBase
								{
									OFFSET 0.000000 0.000000 0.000000
									CHANNELS 3 Zrotation Yrotation Xrotation
									JOINT LeftHandIndex1
									{
										OFFSET 0.715260 -0.000000 -0.000000
										CHANNELS 3 Zrotation Yrotation Xrotation
										End Site
										{
											OFFSET 0.000000 0.000000 0.000000
										}
									}
								}
								JOINT LThumb
								{
									OFFSET 0.000000 0.000000 0.000000
									CHANNELS 3 Zrotation Yrotation Xrotation
									End Site
									{
										OFFSET 0.000000 0.000000 0.000000
									}
								}
							}
						}
					}
				}
				JOINT RightShoulder
				{
					OFFSET 0.000000 0.000000 0.000000
					CHANNELS 3 Zrotation Yrotation Xrotation
					JOINT RightArm
					{
						OFFSET -3.136600 1.374050 -0.404650
						CHANNELS 3 Zrotation Yrotation Xrotation
						JOINT RightForeArm
						{
							OFFSET -5.241900 -0.000000 -0.000000
							CHANNELS 3 Zrotation Yrotation Xrotation
							JOINT RightHand
							{
								OFFSET -3.444170 -0.000000 -0.000000
								CHANNELS 3 Zrotation Yrotation Xrotation
								JOINT RightFingerBase
								{
									OFFSET 0.000000 0.000000 0.000000
									CHANNELS 3 Zrotation Yrotation Xrotation
									JOINT RightHandIndex1
									{
										OFFSET -0.622530 -0.000000 -0.000000
										CHANNELS 3 Zrotation Yrotation Xrotation
										End Site
										{
											OFFSET 0.000000 0.000000 0.000000
										}
									}
								}
								JOINT RThumb
								{
									OFFSET 0.000000 0.000000 0.000000
									CHANNELS 3 Zrotation Yrotation Xrotation
									End Site
									{
										OFFSET 0.000000 0.000000 0.000000
									}
								}
							}
						}
					}
				}
			}
		}
	}
}
MOTION
Frames: 10
Frame Time: 0.008333
25.774450 16.654245 1.424231 159.774676 -83.843317 -130.863670 -7.808692 -0.919115 0.849751 -12.315946 -3.292468 -54.182276 -2.958914 0.584785 22.599224 0.434013 2.541037 1.521333 0.934900 -0.000000 -24.522400 11.665116 -2.436363 -2.206131 4.624584 -3.684824 -7.855655 1.709150 -1.611983 22.120091 0.115562 2.944013 2.684587 0.360600 0.000001 -76.254700 -9.354177 0.865409 3.333902 -3.415597 1.249645 -2.225832 -8.153979 1.161673 0.719301 5.417577 6.678625 4.081638 -5.653243 -0.466619 2.503202 0.000000 0.000000 0.000000 -4.514920 -0.679080 2.750286 -45.523021 -11.283677 -0.188855 -4.825527 -10.050891 -0.006985 1.861550 2.399387 0.041120 -0.136089 0.059391 -0.000000 0.000000 0.000000 0.000000 0.000000 0.000000 0.000000 20.230447 5.223893 -1.078674 75.510499 24.665827 14.932412 1.862294 31.741647 0.002534 1.521398 9.575811 0.131279 -0.014766 -0.169723 0.000000 0.000000 0.000000 0.000000 0.000000 0.000000 0.000000 
25.624270 16.682593 1.437419 159.437720 -83.850814 -130.440875 -7.777677 -0.872110 0.807989 -12.486877 -3.313626 -53.660359 -2.989693 0.556329 22.807635 0.447193 2.431468 0.592334 0.847200 0.000000 -24.467100 11.808571 -2.445312 -2.338044 4.352115 -4.369812 -8.953585 1.548620 -1.845778 24.150792 0.098423 3.100609 4.759995 0.512199 0.000000 -78.028199 -9.463412 0.859660 3.501025 -3.447892 1.243061 -2.182082 -8.125322 1.156986 0.727214 5.317495 6.812377 4.290885 -5.639760 -0.466171 2.549243 0.000000 0.000000 0.000000 -4.585351 -1.044761 2.743159 -45.796259 -11.682836 -0.294554 -4.797702 -9.382683 -0.007459 1.957377 2.547267 0.045608 -0.132483 0.064063 -0.000000 0.000000 0.000000 0.000000 0.000000 0.000000 0.000000 20.070688 5.231798 -1.102144 75.811188 24.531050 14.517460 1.865277 31.170263 0.002576 1.559207 9.430507 0.132370 -0.014658 -0.165628 0.000000 0.000000 0.000000 0.000000 0.000000 0.000000 0.000000 
25.475620 16.711410 1.452791 159.290987 -83.851644 -130.213319 -7.763333 -0.830339 0.772185 -12.616855 -3.330029 -53.084302 -3.016677 0.518510 22.898332 0.461597 2.340199 -0.243230 0.769800 -0.000000 -24.353000 11.933253 -2.438176 -2.468261 4.114435 -5.030973 -10.100310 1.375529 -2.067942 26.240453 0.054416 3.202779 6.941522 0.681200 -0.000001 -79.158100 -9.525272 0.859815 3.664061 -3.469646 1.240555 -2.137029 -8.092743 1.156571 0.741076 5.189503 6.932850 4.500449 -5.628167 -0.465789 2.595389 0.000000 0.000000 0.000000 -4.665049 -1.421249 2.735297 -46.124651 -12.103817 -0.331857 -4.765725 -8.815892 -0.007886 2.035658 2.692526 0.049898 -0.128920 0.068414 -0.000000 0.000000 0.000000 0.000000 0.000000 0.000000 0.000000 19.889374 5.230049 -1.121170 76.067565 24.406868 14.148109 1.874647 30.632605 0.002731 1.643552 9.239676 0.136661 -0.014604 -0.161060 0.000000 0.000000 0.000000 0.000000 0.000000 0.000000 0.000000 
25.328658 16.740391 1.469923 159.324287 -83.845504 -130.169841 -7.764320 -0.793971 0.738912 -12.712622 -3.333936 -52.471590 -3.038227 0.475119 22.895083 0.476881 2.273401 -0.963776 0.704600 0.000000 -24.192100 12.039148 -2.413159 -2.592605 3.913353 -5.646108 -11.280312 1.193389 -2.274254 28.367532 -0.018435 3.227364 9.191299 0.853400 0.000001 -79.583500 -9.545809 0.863551 3.822639 -3.482200 1.240453 -2.089275 -8.059293 1.159024 0.766071 5.044031 7.041674 4.700497 -5.619118 -0.465397 2.638786 0.000000 0.000000 0.000000 -4.757248 -1.758784 2.725656 -46.493294 -12.611839 -0.263965 -4.732104 -8.322320 -0.008238 2.095120 2.819049 0.053494 -0.125574 0.072533 -0.000000 0.000000 0.000000 0.000000 0.000000 0.000000 0.000000 19.701543 5.220651 -1.139281 76.273735 24.296677 13.833252 1.889554 30.140434 0.002976 1.778316 9.011185 0.144054 -0.014727 -0.156054 0.000000 0.000000 0.000000 0.000000 0.000000 0.000000 0.000000 
25.183196 16.769354 1.488101 159.470128 -83.832038 -130.247707 -7.775085 -0.760801 0.705714 -12.787817 -3.324291 -51.828601 -3.054410 0.428071 22.814699 0.493277 2.238446 -1.563195 0.652399 -0.000000 -24.004601 12.131125 -2.368008 -2.708875 3.740021 -6.208468 -12.479279 1.007426 -2.462167 30.514689 -0.119202 3.159469 11.455515 1.011099 -0.000000 -79.294900 -9.536219 0.868193 3.976929 -3.487780 1.240730 -2.041417 -8.026313 1.161793 0.792865 4.892484 7.141362 4.897099 -5.613910 -0.465149 2.681298 0.000000 0.000000 0.000000 -4.847632 -2.105467 2.717841 -46.902887 -13.122144 -0.113995 -4.696509 -7.959545 -0.008519 2.133809 2.934510 0.056591 -0.122400 0.076190 -0.000000 0.000000 0.000000 0.000000 0.000000 0.000000 0.000000 19.524755 5.206142 -1.151285 76.422967 24.193913 13.579943 1.909152 29.699577 0.003287 1.962724 8.752659 0.154245 -0.015104 -0.150782 0.000000 0.000000 0.000000 0.000000 0.000000 0.000000 0.000000 
25.039383 16.798207 1.506879 159.708643 -83.815219 -130.426819 -7.794280 -0.730669 0.670328 -12.847189 -3.296422 -51.165244 -3.065411 0.379675 22.678724 0.510219 2.231260 -2.053754 0.611400 0.000000 -23.812000 12.207727 -2.303689 -2.815047 3.599064 -6.704072 -13.677215 0.824506 -2.629429 32.654265 -0.245111 2.973968 13.662614 1.128200 -0.000001 -78.332800 -9.498726 0.871604 4.127287 -3.486780 1.239510 -1.994314 -7.995743 1.162842 0.818470 4.743526 7.233539 5.090311 -5.613273 -0.465086 2.723085 0.000000 0.000000 0.000000 -4.936201 -2.470036 2.713489 -47.342550 -13.610581 0.116048 -4.659803 -7.752489 -0.008725 2.148672 3.041459 0.058892 -0.119450 0.079337 -0.000000 0.000000 0.000000 0.000000 0.000000 0.000000 0.000000 19.371196 5.187541 -1.155947 76.511542 24.095997 13.386251 1.932504 29.315164 0.003643 2.194912 8.470804 0.166836 -0.015799 -0.145343 0.000000 0.000000 0.000000 0.000000 0.000000 0.000000 0.000000 
24.897069 16.826967 1.525374 159.899627 -83.792146 -130.574084 -7.809928 -0.699015 0.630160 -12.913828 -3.263414 -50.466213 -3.073772 0.328121 22.486594 0.529313 2.262502 -2.450819 0.581500 -0.000000 -23.639900 12.281585 -2.216946 -2.915701 3.461933 -7.155426 -14.869520 0.649850 -2.779084 34.784627 -0.391107 2.668460 15.752328 1.185901 0.000000 -76.822400 -9.454480 0.870705 4.282309 -3.483977 1.234633 -1.943621 -7.968674 1.160645 0.850926 4.610012 7.323474 5.269791 -5.615036 -0.464931 2.760836 0.000000 0.000000 0.000000 -5.021445 -2.779816 2.709385 -47.798266 -14.197980 0.472831 -4.624096 -7.614145 -0.008828 2.157317 3.105549 0.060296 -0.116813 0.082226 -0.000000 0.000000 0.000000 0.000000 0.000000 0.000000 0.000000 19.247648 5.168813 -1.160988 76.545234 24.006143 13.254214 1.956804 28.986236 0.003985 2.457287 8.196971 0.180626 -0.016809 -0.139883 0.000000 0.000000 0.000000 0.000000 0.000000 0.000000 0.000000 
24.755873 16.855680 1.543769 160.112108 -83.773115 -130.756026 -7.829702 -0.669184 0.585604 -12.973427 -3.213736 -49.746825 -3.079263 0.276321 22.263671 0.548583 2.309621 -2.789299 0.556700 -0.000000 -23.499200 12.340065 -2.115958 -3.008190 3.357736 -7.539206 -16.030298 0.489880 -2.910609 36.865833 -0.550975 2.206606 17.625690 1.149301 0.000000 -74.883300 -9.387928 0.865148 4.437280 -3.475593 1.225112 -1.894733 -7.945784 1.153358 0.876027 4.492168 7.411148 5.448972 -5.620751 -0.464947 2.799039 0.000000 0.000000 0.000000 -5.105708 -3.127315 2.711087 -48.265597 -14.724198 0.897057 -4.588044 -7.657143 -0.008868 2.146617 3.161196 0.061003 -0.114417 0.084576 -0.000000 0.000000 0.000000 0.000000 0.000000 0.000000 0.000000 19.157896 5.149610 -1.157597 76.521112 23.912571 13.166338 1.982340 28.713839 0.004317 2.748163 7.924324 0.195116 -0.018120 -0.134539 0.000000 0.000000 0.000000 0.000000 0.000000 0.000000 0.000000 
24.616296 16.884463 1.561443 160.238023 -83.755352 -130.874404 -7.844650 -0.638124 0.535130 -13.041650 -3.160684 -48.986298 -3.084460 0.221567 22.001083 0.569357 2.377641 -3.091783 0.536000 0.000000 -23.401500 12.392681 -2.000385 -3.097987 3.263338 -7.877178 -17.155676 0.346116 -3.029737 38.895823 -0.718682 1.587106 19.225573 1.004301 0.000000 -72.727700 -9.315272 0.853415 4.600086 -3.465295 1.210038 -1.843898 -7.927263 1.140639 0.900512 4.398090 7.498002 5.619679 -5.628106 -0.464895 2.835141 0.000000 0.000000 0.000000 -5.188082 -3.455493 2.715327 -48.735937 -15.288264 1.417033 -4.552749 -7.803509 -0.008833 2.136641 3.181146 0.061012 -0.112294 0.086628 -0.000000 0.000000 0.000000 0.000000 0.000000 0.000000 0.000000 19.102186 5.130751 -1.152317 76.447293 23.819809 13.121110 2.006920 28.490917 0.004599 3.045245 7.681905 0.209506 -0.019628 -0.129468 0.000000 0.000000 0.000000 0.000000 0.000000 0.000000 0.000000 
24.477908 16.913414 1.578392 160.280706 -83.741057 -130.933440 -7.855656 -0.606361 0.478935 -13.115500 -3.106381 -48.177865 -3.090168 0.163321 21.700091 0.591300 2.457796 -3.383459 0.516200 -0.000000 -23.347000 12.437553 -1.875157 -3.186977 3.181705 -8.169924 -18.235617 0.219057 -3.140383 40.859469 -0.888325 0.802867 20.484421 0.739200 0.000000 -70.505000 -9.235374 0.835600 4.771997 -3.452817 1.189393 -1.791076 -7.913066 1.122486 0.923844 4.328973 7.582080 5.781930 -5.636299 -0.464741 2.869319 0.000000 0.000000 0.000000 -5.271870 -3.766477 2.721784 -49.204045 -15.886110 2.021420 -4.517891 -8.049755 -0.008742 2.134910 3.166654 0.060624 -0.110422 0.088438 -0.000000 0.000000 0.000000 0.000000 0.000000 0.000000 0.000000 19.077948 5.110230 -1.145615 76.329093 23.727536 13.108617 2.029841 28.310927 0.004820 3.333552 7.480885 0.223296 -0.021216 -0.124799 0.000000 0.000000 0.000000 0.000000 0.000000 0.000000 0.000000 
